<svg width="19" height="19" viewBox="0 0 19 19" fill="none" xmlns="http://www.w3.org/2000/svg">
<path d="M14.512 11.7071L17.1602 14.3552C17.5163 14.7113 17.5163 15.2887 17.1602 15.6448C15.2349 17.57 12.1871 17.7866 10.0089 16.153L8.4335 14.9714C6.68997 13.6638 5.14115 12.115 3.8335 10.3714L2.65194 8.79601C1.01834 6.61788 1.23495 3.56999 3.16016 1.64477C3.51626 1.28867 4.0936 1.28867 4.4497 1.64477L7.09783 4.29289C7.48835 4.68342 7.48835 5.31658 7.09783 5.70711L6.07668 6.72825C5.91439 6.89054 5.87416 7.13846 5.9768 7.34373C7.16346 9.71706 9.08788 11.6415 11.4612 12.8281C11.6665 12.9308 11.9144 12.8905 12.0767 12.7283L13.0978 11.7071C13.4883 11.3166 14.1215 11.3166 14.512 11.7071Z" stroke="#575756" stroke-width="2"/>
</svg>
