<svg width="21" height="20" viewBox="0 0 21 20" fill="none" xmlns="http://www.w3.org/2000/svg">
<path d="M0.804932 10C0.804932 4.47715 5.28208 0 10.8049 0C16.3278 0 20.8049 4.47715 20.8049 10C20.8049 15.5228 16.3278 20 10.8049 20C5.28208 20 0.804932 15.5228 0.804932 10Z" fill="#575756"/>
<path d="M13.9319 4.77296C12.0261 4.40901 10.0471 4.40901 8.14132 4.77296C7.29839 4.95493 6.23556 5.97397 6.05231 6.77464C5.72247 8.33959 5.72247 9.94094 6.05231 11.5059C6.27221 12.3066 7.33504 13.3256 8.14132 13.5076C8.17797 13.5076 8.21462 13.544 8.21462 13.5804V15.8732C8.21462 15.9824 8.36122 16.0552 8.43451 15.946L9.53399 14.8178C9.53399 14.8178 10.4136 13.9079 10.5602 13.7623C10.5602 13.7623 10.5968 13.7259 10.6335 13.7259C11.7329 13.7623 12.8691 13.6532 13.9685 13.4712C14.8115 13.2892 15.8743 12.2702 16.0576 11.4695C16.3874 9.90455 16.3874 8.3032 16.0576 6.73825C15.8377 5.97397 14.7748 4.95493 13.9319 4.77296ZM13.9685 11.6151C13.7853 11.979 13.5654 12.2702 13.1989 12.4521C13.089 12.4885 12.979 12.5249 12.8691 12.5613C12.7225 12.5249 12.6125 12.4885 12.5026 12.4521C11.3298 11.979 10.2303 11.3239 9.35074 10.3777C8.8743 9.83176 8.47116 9.21306 8.14132 8.55796C7.99472 8.23041 7.84813 7.93926 7.73818 7.61171C7.62823 7.32055 7.81148 7.0294 7.99472 6.81104C8.17797 6.59267 8.39786 6.44709 8.65441 6.33791C8.83766 6.22873 9.0209 6.30152 9.1675 6.44709C9.46069 6.81104 9.75388 7.17498 9.97378 7.57531C10.1204 7.83007 10.0837 8.12123 9.82718 8.3032C9.75388 8.33959 9.71723 8.37599 9.64394 8.44878C9.60729 8.48517 9.53399 8.52156 9.49734 8.59435C9.42404 8.70354 9.42404 8.81272 9.46069 8.9219C9.75388 9.75897 10.3036 10.4141 11.1466 10.778C11.2932 10.8508 11.4031 10.8872 11.5863 10.8872C11.8429 10.8508 11.9528 10.5596 12.1361 10.4141C12.3193 10.2685 12.5392 10.2685 12.7591 10.3777C12.9424 10.4869 13.1256 10.6324 13.3455 10.778C13.5288 10.9236 13.712 11.0328 13.8952 11.1783C14.0052 11.2511 14.0418 11.4331 13.9685 11.6151ZM12.4293 8.88551C12.3926 8.88551 12.356 8.88551 12.4293 8.88551C12.2827 8.88551 12.246 8.81272 12.2094 8.70354C12.2094 8.63075 12.2094 8.52157 12.1727 8.44878C12.1361 8.3032 12.0628 8.15762 11.9162 8.04844C11.8429 8.01204 11.7696 7.97565 11.6963 7.93926C11.5863 7.90286 11.513 7.90286 11.4031 7.90286C11.2932 7.86647 11.2565 7.79368 11.2565 7.6845C11.2565 7.61171 11.3665 7.53892 11.4397 7.53892C12.0261 7.57531 12.4659 7.90286 12.5392 8.59435C12.5392 8.63075 12.5392 8.70354 12.5392 8.73993C12.5392 8.81272 12.5026 8.88551 12.4293 8.88551ZM12.0628 7.28416C11.8795 7.21137 11.6963 7.13858 11.4764 7.10219C11.4031 7.10219 11.2932 7.06579 11.2199 7.06579C11.1099 7.06579 11.0366 6.99301 11.0733 6.88382C11.0733 6.77464 11.1466 6.70185 11.2565 6.73825C11.623 6.77464 11.9528 6.84743 12.2827 6.99301C12.9424 7.32055 13.3089 7.86647 13.4188 8.59435C13.4188 8.63075 13.4188 8.66714 13.4188 8.70354C13.4188 8.77633 13.4188 8.84911 13.4188 8.95829C13.4188 8.99469 13.4188 9.03108 13.4188 9.06748C13.3822 9.21306 13.1256 9.24945 13.089 9.06748C13.089 9.03108 13.0523 8.9583 13.0523 8.9219C13.0523 8.59435 12.979 8.2668 12.8324 7.97565C12.6125 7.6481 12.356 7.42974 12.0628 7.28416ZM14.0418 9.46782C13.9319 9.46782 13.8586 9.35863 13.8586 9.24945C13.8586 9.03109 13.8219 8.81272 13.7853 8.59435C13.6387 7.42974 12.6858 6.48349 11.5497 6.30152C11.3665 6.26512 11.1832 6.26512 11.0366 6.22873C10.9267 6.22873 10.7801 6.22873 10.7434 6.08315C10.7068 5.97397 10.8167 5.86478 10.9267 5.86478C10.9633 5.86478 11 5.86478 11 5.86478C11.0733 5.86478 12.5026 5.90118 11 5.86478C12.5392 5.90118 13.8219 6.92022 14.0785 8.44878C14.1151 8.70354 14.1518 8.9583 14.1518 9.24945C14.2251 9.35863 14.1518 9.46782 14.0418 9.46782Z" fill="white"/>
</svg>
