<svg width="27" height="26" viewBox="0 0 27 26" fill="none" xmlns="http://www.w3.org/2000/svg">
<path fill-rule="evenodd" clip-rule="evenodd" d="M13.6398 2.03807C7.58607 2.03807 2.6779 6.9453 2.6779 13C2.6779 19.0538 7.58513 23.9629 13.6398 23.9629C19.6936 23.9629 24.6027 19.0547 24.6027 13C24.6027 6.94624 19.6945 2.03807 13.6398 2.03807ZM0.639832 13C0.639832 5.82049 6.46032 0 13.6398 0C20.8193 0 26.6398 5.82049 26.6398 13C26.6398 20.1795 20.8193 26 13.6398 26C6.46032 26 0.639832 20.1795 0.639832 13Z" fill="#575756"/>
<path fill-rule="evenodd" clip-rule="evenodd" d="M13.6398 9.60479C12.7394 9.60479 11.8758 9.96249 11.2391 10.5992C10.6023 11.2359 10.2446 12.0995 10.2446 13C10.2446 13.9005 10.6023 14.764 11.2391 15.4008C11.8758 16.0375 12.7394 16.3952 13.6398 16.3952C14.5403 16.3952 15.4039 16.0375 16.0406 15.4008C16.6773 14.764 17.035 13.9005 17.035 13C17.035 12.0995 16.6773 11.2359 16.0406 10.5992C15.4039 9.96249 14.5403 9.60479 13.6398 9.60479ZM8.2075 13C8.19802 12.2805 8.33153 11.5663 8.6003 10.8989C8.86907 10.2314 9.26773 9.624 9.77316 9.11187C10.2786 8.59973 10.8807 8.19309 11.5445 7.91555C12.2084 7.63801 12.9208 7.49509 13.6403 7.49509C14.3598 7.49509 15.0722 7.63801 15.7361 7.91555C16.3999 8.19309 17.002 8.59973 17.5075 9.11187C18.0129 9.624 18.4115 10.2314 18.6803 10.8989C18.9491 11.5663 19.0826 12.2805 19.0731 13C19.0543 14.4285 18.4736 15.792 17.4568 16.7955C16.44 17.799 15.0689 18.3616 13.6403 18.3616C12.2117 18.3616 10.8406 17.799 9.82381 16.7955C8.80701 15.792 8.22634 14.4285 8.2075 13Z" fill="#575756"/>
<path fill-rule="evenodd" clip-rule="evenodd" d="M5.31192 21.6604C6.05975 20.0848 7.23923 18.7537 8.71337 17.8217C10.1875 16.8897 11.8958 16.3951 13.6399 16.3952C15.4062 16.3949 17.1354 16.9022 18.6217 17.8565C20.108 18.8109 21.2887 20.1722 22.0235 21.7784C22.1311 22.0234 22.138 22.3008 22.0428 22.5508C21.9475 22.8008 21.7578 23.0034 21.5146 23.1147C21.2713 23.2261 20.994 23.2373 20.7425 23.1459C20.4911 23.0546 20.2856 22.868 20.1705 22.6265C19.5981 21.3753 18.6783 20.3149 17.5205 19.5716C16.3627 18.8282 15.0158 18.4331 13.6399 18.4333C12.2811 18.4329 10.9501 18.8181 9.80159 19.5442C8.65307 20.2703 7.73417 21.3073 7.15166 22.5349C7.03045 22.7701 6.82251 22.949 6.5718 23.0336C6.3211 23.1183 6.0473 23.1021 5.80832 22.9885C5.56933 22.8749 5.38391 22.6728 5.29127 22.4249C5.19863 22.177 5.20603 21.9029 5.31192 21.6604Z" fill="#575756"/>
</svg>
