<svg width="31" height="26" viewBox="0 0 31 26" fill="none" xmlns="http://www.w3.org/2000/svg">
<path fill-rule="evenodd" clip-rule="evenodd" d="M9.22845 23.4115C9.22845 21.9668 10.4271 20.8231 11.8729 20.8231C13.3177 20.8231 14.5163 21.9668 14.5163 23.4115C14.5163 24.8563 13.3177 26 11.8729 26C10.4271 26 9.22845 24.8563 9.22845 23.4115ZM0.223755 1.33708C0.223755 0.598775 0.822529 0 1.56193 0H4.61294C5.83246 0 6.93113 0.809718 7.24205 2.01825L7.75513 4.01344H27.3444C28.8067 4.01344 30.0559 5.17803 30.0559 6.6887C30.0559 6.88646 30.0339 7.08422 29.99 7.27648L27.852 16.6415C27.5674 17.8852 26.4501 18.729 25.2053 18.729H10.8841C10.284 18.7317 9.70004 18.5349 9.22394 18.1696C8.74784 17.8043 8.40663 17.2911 8.25393 16.7108L5.42925 5.71308C5.42372 5.69452 5.41859 5.67583 5.41387 5.65705L4.65249 2.68844L4.65029 2.68625C4.6397 2.67879 4.62699 2.67494 4.61404 2.67526H1.56193C1.20722 2.67526 0.867012 2.53442 0.616086 2.2837C0.365161 2.03298 0.224046 1.6929 0.223755 1.33818V1.33708ZM8.4418 6.6887L10.8446 16.0406L10.8468 16.0428C10.8534 16.0483 10.8655 16.0537 10.8841 16.0537H25.2053C25.2186 16.0544 25.2318 16.0505 25.2426 16.0428L25.2448 16.0406L27.3785 6.69749C27.3757 6.69574 27.3727 6.69427 27.3697 6.69309C27.3613 6.68987 27.3523 6.68838 27.3433 6.6887H8.4429H8.4418ZM21.6017 23.4115C21.6017 21.9668 22.8003 20.8231 24.2462 20.8231C25.6909 20.8231 26.8896 21.9668 26.8896 23.4115C26.8896 24.8563 25.692 26 24.2462 26C22.8003 26 21.6017 24.8563 21.6017 23.4115Z" fill="#575756"/>
</svg>
