<svg width="26" height="28" viewBox="0 0 26 28" fill="none" xmlns="http://www.w3.org/2000/svg">
<path d="M23.8492 1.84614L23.1421 2.55324V2.55324L23.8492 1.84614ZM23.8492 18.9316L23.1421 18.2245V18.2245L23.8492 18.9316ZM23.8492 26.1539L23.1421 25.4468L23.8492 26.1539ZM8.80645 7.22222C8.25417 7.22222 7.80645 7.66994 7.80645 8.22222C7.80645 8.77451 8.25417 9.22222 8.80645 9.22222L8.80645 7.22222ZM17.4731 9.22222C18.0254 9.22222 18.4731 8.77451 18.4731 8.22222C18.4731 7.66994 18.0254 7.22222 17.4731 7.22222V9.22222ZM23.6953 14V21.2222H25.6953V14H23.6953ZM18.9176 26H5.19534V28H18.9176V26ZM5.19534 20.7778H18.9176V18.7778H5.19534V20.7778ZM25.6953 14V6.77778H23.6953V14H25.6953ZM18.9176 0H7.36201V2H18.9176V0ZM0.584229 6.77778V23.3889H2.58423V6.77778H0.584229ZM7.36201 0C6.02844 0 4.92767 -0.00212371 4.05886 0.114684C3.16129 0.23536 2.36309 0.499192 1.72326 1.13903L3.13747 2.55324C3.34377 2.34694 3.64956 2.18771 4.32536 2.09685C5.02992 2.00212 5.9719 2 7.36201 2V0ZM2.58423 6.77778C2.58423 5.38767 2.58635 4.44569 2.68108 3.74113C2.77194 3.06533 2.93117 2.75954 3.13747 2.55324L1.72326 1.13903C1.08342 1.77887 0.819588 2.57706 0.698913 3.47463C0.582105 4.34344 0.584229 5.44421 0.584229 6.77778H2.58423ZM25.6953 6.77778C25.6953 5.44421 25.6975 4.34344 25.5807 3.47463C25.46 2.57706 25.1961 1.77887 24.5563 1.13903L23.1421 2.55324C23.3484 2.75954 23.5076 3.06533 23.5985 3.74113C23.6932 4.44569 23.6953 5.38767 23.6953 6.77778H25.6953ZM18.9176 2C20.3077 2 21.2496 2.00212 21.9542 2.09685C22.63 2.18771 22.9358 2.34694 23.1421 2.55324L24.5563 1.13903C23.9165 0.499192 23.1183 0.23536 22.2207 0.114684C21.3519 -0.00212371 20.2511 0 18.9176 0V2ZM18.9176 20.7778C20.2511 20.7778 21.3519 20.7799 22.2207 20.6631C23.1183 20.5424 23.9165 20.2786 24.5563 19.6387L23.1421 18.2245C22.9358 18.4308 22.63 18.5901 21.9542 18.6809C21.2496 18.7757 20.3077 18.7778 18.9176 18.7778V20.7778ZM23.6953 14C23.6953 15.3901 23.6932 16.3321 23.5985 17.0366C23.5076 17.7124 23.3484 18.0182 23.1421 18.2245L24.5563 19.6387C25.1961 18.9989 25.46 18.2007 25.5807 17.3031C25.6975 16.4343 25.6953 15.3336 25.6953 14H23.6953ZM2.58423 23.3889C2.58423 21.9468 3.75326 20.7778 5.19534 20.7778V18.7778C2.64869 18.7778 0.584229 20.8422 0.584229 23.3889H2.58423ZM5.19534 26C3.75326 26 2.58423 24.831 2.58423 23.3889H0.584229C0.584229 25.9355 2.64869 28 5.19534 28V26ZM23.6953 21.2222C23.6953 22.6123 23.6932 23.5543 23.5985 24.2589C23.5076 24.9347 23.3484 25.2405 23.1421 25.4468L24.5563 26.861C25.1961 26.2211 25.46 25.4229 25.5807 24.5254C25.6975 23.6566 25.6953 22.5558 25.6953 21.2222H23.6953ZM18.9176 28C20.2511 28 21.3519 28.0021 22.2207 27.8853C23.1183 27.7646 23.9165 27.5008 24.5563 26.861L23.1421 25.4468C22.9358 25.6531 22.63 25.8123 21.9542 25.9032C21.2496 25.9979 20.3077 26 18.9176 26V28ZM8.80645 9.22222H17.4731V7.22222L8.80645 7.22222L8.80645 9.22222Z" fill="#575756"/>
</svg>
