<svg width="31" height="26" viewBox="0 0 31 26" fill="none" xmlns="http://www.w3.org/2000/svg">
<path fill-rule="evenodd" clip-rule="evenodd" d="M30.3292 7.73103C30.2417 5.25737 28.9947 2.87127 26.9236 1.45348C25.2413 0.277337 23.1735 -0.212217 21.1424 0.084805C19.8677 0.272202 18.6501 0.738829 17.5766 1.45135C16.8468 1.93347 16.1938 2.52303 15.64 3.20009C15.0858 2.52253 14.4321 1.93291 13.7012 1.45135C12.6294 0.74205 11.4145 0.27766 10.1429 0.0912107C8.11217 -0.205934 6.04444 0.279893 4.35855 1.45028C2.28526 2.8702 1.03722 5.25737 0.950744 7.73103V7.73316C0.842916 10.952 2.31408 13.7075 4.59236 16.4139C6.44893 18.6185 8.95889 20.9256 11.8308 23.5295L12.4105 24.0537L12.4115 24.0548L13.7471 25.2665C14.2723 25.7562 14.9692 26.0193 15.687 25.9989C16.525 25.9743 17.2286 25.5729 17.7816 25.0679L19.1054 23.8615H19.1076C22.13 21.1124 24.7979 18.6868 26.741 16.3637C28.9851 13.684 30.4435 10.9381 30.3282 7.73103H30.3292ZM21.5225 2.74315C22.8904 2.54162 24.2833 2.87296 25.414 3.66877L25.4182 3.67091C26.7581 4.58692 27.6004 6.16911 27.6591 7.82604C27.7392 10.0712 26.7527 12.1787 24.6976 14.6353C22.8794 16.8068 20.3663 19.0936 17.3161 21.8683L15.9848 23.0811C15.9001 23.1628 15.8041 23.2318 15.6998 23.2861C15.6722 23.3017 15.6416 23.3115 15.6101 23.3149C15.6028 23.3154 15.5956 23.3143 15.5887 23.3117C15.5747 23.3057 15.562 23.297 15.5514 23.2861L15.5428 23.2786L14.1998 22.0594C11.0578 19.2121 8.48593 16.8815 6.63256 14.6801C4.54218 12.1958 3.5461 10.0787 3.62084 7.82391C3.67955 6.16911 4.52297 4.58692 5.86282 3.66984C6.99789 2.87697 8.39301 2.54777 9.7628 2.74956C11.2147 2.96472 12.5403 3.69631 13.4962 4.81005C13.7418 5.0983 13.9574 5.41431 14.1528 5.74527C14.8574 6.9474 16.4193 6.94847 17.1261 5.74634C17.3204 5.41538 17.5371 5.09937 17.7837 4.81005C18.7409 3.69394 20.0683 2.96016 21.5225 2.74315ZM17.3161 21.8683L15.9848 23.0811L17.3161 21.8683Z" fill="#575756"/>
</svg>
