<svg width="150" height="16" viewBox="0 0 150 16" fill="none" xmlns="http://www.w3.org/2000/svg">
<path d="M3.97208 1.58168C3.97208 1.1345 3.60381 0.766235 3.15663 0.766235H1.05226C0.605081 0.766235 0.236816 1.1345 0.236816 1.58168V3.68605C0.236816 4.13323 0.605081 4.5015 1.05226 4.5015H3.99838V1.58168H3.97208Z" fill="#B5B614"/>
<path d="M10.0484 0.634705C10.0484 0.634705 9.96946 0.634705 9.94316 0.634705C6.99704 0.634705 5.0768 2.10777 5.0768 4.52779C5.0768 4.52779 9.89055 4.52779 9.91685 4.52779C10.5219 4.52779 10.969 4.86975 10.969 5.52737V11.1566H4.81375C4.39288 11.1566 4.07722 10.8146 4.07722 10.42C4.07722 9.99916 4.41918 9.6835 4.81375 9.6835H9.78533C9.78533 7.34239 8.44379 5.76411 6.02376 5.76411H4.20874C1.81502 5.76411 0 7.78957 0 10.4726C0 11.6037 0.341961 12.6559 0.946968 13.4714C1.73611 14.5236 2.89351 15.076 4.20874 15.076H6.83921H12.8893H13.0208C13.5469 15.076 14.0993 14.8392 14.4413 14.4709C14.7832 14.129 15.0726 13.6029 15.0726 13.0768V5.55367C15.0989 2.21298 12.1791 0.634705 10.0484 0.634705Z" fill="#B5B614"/>
<path d="M29.5927 0.818817L35.2482 15.0759H32.0127L30.829 11.8668H24.9368L23.7268 15.0759H20.6754L26.3572 0.818817H29.5927ZM29.961 9.52566L27.8566 3.68602H27.804L25.8311 9.52566H29.961Z" fill="#575756"/>
<path fill-rule="evenodd" clip-rule="evenodd" d="M73.4163 4.52778C72.2063 4.73822 71.3909 5.23801 70.628 6.23758H70.5754V4.71191H68.0765L68.0502 15.0759H70.5491C70.5491 15.0759 70.5491 11.3144 70.5491 10.5252C70.5491 9.97284 70.628 9.42044 70.8122 8.99957C71.3646 7.68434 72.3641 6.97411 74.2581 7.00042V4.52778C73.995 4.47517 73.6268 4.50148 73.4163 4.52778Z" fill="#575756"/>
<path fill-rule="evenodd" clip-rule="evenodd" d="M114.004 4.52775C112.794 4.73819 111.979 5.23797 111.216 6.23755H111.163V4.65927H108.664L108.638 15.0759H111.137C111.137 15.0759 111.137 11.3143 111.137 10.5252C111.137 9.97281 111.216 9.42041 111.4 8.99954C111.953 7.68431 112.952 6.97408 114.846 7.00039V4.52775C114.583 4.47514 114.215 4.50144 114.004 4.52775Z" fill="#575756"/>
<path fill-rule="evenodd" clip-rule="evenodd" d="M54.5033 6.8689V4.68562H51.3467V1.66058H48.8478V4.68562H47.4536V6.8689H48.8478C48.8478 6.8689 48.8478 9.6835 48.8478 11.2092C48.8478 13.787 50.6628 15.076 53.2406 15.076C53.4511 15.076 54.5033 15.076 54.5033 15.076V12.8138C54.5033 12.8138 53.872 12.8138 53.6352 12.8138C52.925 12.8138 52.2148 12.6559 51.8202 12.1824C51.5045 11.7879 51.3467 11.63 51.3467 10.2096C51.3467 9.76241 51.3467 6.8689 51.3467 6.8689H54.5033Z" fill="#575756"/>
<path fill-rule="evenodd" clip-rule="evenodd" d="M43.7445 4.71192C43.2447 4.52779 42.4556 4.44887 41.7191 4.47518C41.114 4.50148 40.4827 4.68561 40.0619 4.89605C39.5621 5.13279 39.1938 5.39584 38.8782 5.7115H38.8518V4.68561H36.3529C36.3529 8.13152 36.3529 15.0496 36.3529 15.0496H38.8518C38.8518 15.0496 38.8518 9.60458 38.8518 9.21001C38.8518 8.21044 39.3516 7.52652 39.904 7.15825C40.4038 6.81629 40.9562 6.55324 41.798 6.63216C42.8765 6.73738 43.7182 7.31608 43.7182 8.94697C43.7182 9.52567 43.7182 15.0233 43.7182 15.0233H46.2698C46.2698 15.0233 46.2698 9.1311 46.2698 8.5524C46.2698 6.71107 45.4806 5.34323 43.7445 4.71192Z" fill="#575756"/>
<path fill-rule="evenodd" clip-rule="evenodd" d="M94.723 11.4459C94.3284 9.68351 92.566 9.21003 90.9351 8.73654C90.2775 8.55241 89.3305 8.39458 89.0938 7.86849C88.6992 6.97413 89.9355 6.60587 90.7773 6.65847C91.6979 6.73739 92.3819 7.07935 93.1184 7.65805L94.3547 5.81673C94.2495 5.73781 93.8023 5.42216 93.513 5.26433C92.5397 4.71193 91.5927 4.47519 90.7247 4.47519C90.0144 4.47519 89.6199 4.5278 89.2779 4.60671C88.5677 4.79084 87.989 5.05389 87.4629 5.57998C87.1998 5.84303 86.9894 6.18499 86.8316 6.57956C86.2529 8.26306 87.1998 9.47307 88.1994 10.0781C89.0149 10.5779 90.067 10.7883 91.0666 11.1303C91.5401 11.2881 92.1977 11.4196 92.3555 11.8931C92.6712 12.8138 91.4086 13.2346 90.5405 13.0768C89.4883 12.8927 88.7518 12.4455 88.0679 11.9194C87.9627 11.8405 87.7522 11.6301 87.7522 11.6301C87.7522 11.6301 86.3581 13.4188 86.3318 13.4451C87.1472 14.1816 87.8048 14.7077 88.9359 15.0497C91.014 15.6547 93.3288 15.1023 94.2758 13.7607C94.5388 13.3925 94.6967 12.9979 94.7756 12.4455C94.8019 12.1825 94.8019 11.7353 94.723 11.4459Z" fill="#575756"/>
<path d="M63.1312 14.1553H63.0786C62.7104 14.4709 62.4736 14.734 61.8423 14.997C61.2373 15.2338 60.5534 15.3127 59.8169 15.3127C59.396 15.3127 58.9488 15.2601 58.4753 15.1549C58.0018 15.0496 57.581 14.8655 57.2127 14.6025C56.8181 14.3394 56.5025 13.9974 56.2394 13.6029C55.9764 13.182 55.8448 12.6559 55.8448 12.0509C55.8448 11.2618 56.0553 10.5252 56.4499 10.0254C56.9496 9.36783 57.4231 9.13108 58.0544 8.94695C58.6857 8.76282 59.3434 8.76282 60.5797 8.76282H63.1049V8.57869C63.1049 7.92107 62.8682 7.42128 62.3947 7.10563C61.9212 6.78997 61.3951 6.71106 60.7375 6.71106C60.1851 6.71106 59.5801 6.81628 59.054 7.00041C58.5279 7.18454 58.2649 7.39498 57.8177 7.76324L56.4499 6.23757C57.0549 5.68518 57.7388 5.2643 58.5279 4.97495C59.3171 4.6856 60.1062 4.55408 60.9216 4.55408C61.8686 4.55408 62.6314 4.6856 63.2365 4.94865C63.8415 5.21169 64.3149 5.55365 64.6832 5.97453C65.0252 6.3954 65.2882 6.86889 65.4197 7.39498C65.5513 7.92107 65.6302 8.26303 65.6302 9.13109V15.0233H63.1575V14.1553H63.1312ZM63.1049 10.5778H62.4736C62.0527 10.5778 61.6056 10.5778 61.1321 10.5778C60.6849 10.5778 60.2903 10.5778 59.8695 10.6305C59.4486 10.6831 59.1329 10.7883 58.8699 11.025C58.6068 11.2618 58.4753 11.5511 58.4753 11.9457C58.4753 12.2087 58.5279 12.3929 58.6331 12.577C58.7384 12.7348 58.8962 12.8927 59.054 12.9716C59.2381 13.0768 59.4223 13.1557 59.659 13.182C59.8695 13.2346 60.1062 13.2609 60.3166 13.2609C61.2373 13.2609 61.9212 13.0242 62.3947 12.5244C62.8682 12.0509 63.1049 11.63 63.1049 10.7883V10.5778Z" fill="#575756"/>
<path d="M122.948 14.1553H122.895C122.527 14.4709 122.29 14.734 121.659 14.997C121.054 15.2338 120.37 15.3127 119.634 15.3127C119.213 15.3127 118.765 15.2601 118.292 15.1549C117.818 15.0496 117.398 14.8655 117.029 14.6025C116.635 14.3394 116.319 13.9974 116.056 13.6029C115.793 13.182 115.661 12.6559 115.661 12.0509C115.661 11.2618 115.872 10.5252 116.267 10.0254C116.766 9.36783 117.24 9.13108 117.871 8.94695C118.502 8.76282 119.16 8.76282 120.396 8.76282H122.922V8.57869C122.922 7.92107 122.685 7.42128 122.211 7.10563C121.738 6.78997 121.212 6.71106 120.554 6.71106C120.002 6.71106 119.397 6.81628 118.871 7.00041C118.345 7.18454 118.082 7.39498 117.634 7.76324L116.267 6.23757C116.872 5.68518 117.555 5.2643 118.345 4.97495C119.134 4.6856 119.923 4.55408 120.738 4.55408C121.685 4.55408 122.448 4.6856 123.053 4.94865C123.658 5.21169 124.132 5.55365 124.5 5.97453C124.842 6.3954 125.105 6.86889 125.236 7.39498C125.368 7.92107 125.447 8.26303 125.447 9.13109V15.0233H122.974V14.1553H122.948ZM122.922 10.5778H122.29C121.869 10.5778 121.422 10.5778 120.949 10.5778C120.502 10.5778 120.107 10.5778 119.686 10.6305C119.265 10.6831 118.95 10.7883 118.687 11.025C118.423 11.2618 118.292 11.5511 118.292 11.9457C118.292 12.2087 118.345 12.3929 118.45 12.577C118.555 12.7348 118.713 12.8927 118.871 12.9716C119.055 13.0768 119.239 13.1557 119.476 13.182C119.686 13.2346 119.923 13.2609 120.133 13.2609C121.054 13.2609 121.738 13.0242 122.211 12.5244C122.685 12.0509 122.922 11.63 122.922 10.7883V10.5778Z" fill="#575756"/>
<path d="M104.745 3.23884V15.0759H102.088V3.23884H98.0374V0.792511H108.822V3.23884H104.745Z" fill="#575756"/>
<path fill-rule="evenodd" clip-rule="evenodd" d="M85.3586 9.99917C85.3586 7.07935 83.5173 4.5278 80.0187 4.5278C77.0726 4.5278 74.7578 6.84261 74.7578 9.94656C74.7578 13.1294 76.9674 15.3653 80.2029 15.3653C82.0179 15.3653 83.8592 14.734 84.8325 13.3136L83.412 11.8142C82.0968 13.1031 81.1761 13.2872 80.0977 13.2872C78.7824 13.2872 77.5724 12.3403 77.3357 10.9724H85.2797C85.3323 10.7094 85.3586 10.3411 85.3586 9.99917ZM80.045 6.63217C81.5707 6.63217 82.7018 7.39501 82.7807 9.10481H77.2831C77.4935 7.60545 78.4142 6.63217 80.045 6.63217Z" fill="#575756"/>
<path fill-rule="evenodd" clip-rule="evenodd" d="M149.805 9.99917C149.805 7.07935 147.964 4.5278 144.465 4.5278C141.519 4.5278 139.204 6.84261 139.204 9.94656C139.204 13.1294 141.414 15.3653 144.649 15.3653C146.464 15.3653 148.306 14.734 149.279 13.3136L147.858 11.8142C146.543 13.1031 145.623 13.2872 144.544 13.2872C143.229 13.2872 142.019 12.3403 141.782 10.9724H149.726C149.752 10.7094 149.805 10.3411 149.805 9.99917ZM144.465 6.63217C145.991 6.63217 147.122 7.39501 147.201 9.10481H141.703C141.914 7.60545 142.834 6.63217 144.465 6.63217Z" fill="#575756"/>
<path fill-rule="evenodd" clip-rule="evenodd" d="M135.364 1.52905V5.68519C134.469 4.89605 133.286 4.42256 132.023 4.42256C129.156 4.42256 126.841 6.84259 126.841 9.84132C126.841 12.8401 129.156 15.2601 132.023 15.2601C133.286 15.2601 134.469 14.7866 135.364 13.9975V15.0496H137.81V1.52905H135.364ZM132.391 13.0242C130.681 13.0242 129.314 11.6037 129.314 9.84132C129.314 8.07891 130.708 6.65846 132.391 6.65846C134.101 6.65846 135.469 8.07891 135.469 9.84132C135.469 11.6037 134.075 13.0242 132.391 13.0242Z" fill="#575756"/>
</svg>
