<svg width="30" height="29" viewBox="0 0 30 29" fill="none" xmlns="http://www.w3.org/2000/svg">
<path d="M15.1398 27.3102C22.4052 27.3102 28.295 21.4205 28.295 14.1551C28.295 6.88975 22.4052 1 15.1398 1C7.87446 1 1.98471 6.88975 1.98471 14.1551C1.98471 21.4205 7.87446 27.3102 15.1398 27.3102Z" stroke="#575756" stroke-width="2" stroke-miterlimit="10"/>
<path d="M11.9593 6.04469H17.6489C18.2888 6.00782 18.9293 6.10791 19.5274 6.33828C20.1256 6.56864 20.6677 6.92397 21.1176 7.38054C21.5674 7.83712 21.9147 8.38442 22.1362 8.98591C22.3578 9.5874 22.4484 10.2292 22.4021 10.8685C22.4308 11.5725 22.3112 12.2746 22.051 12.9294C21.7909 13.5842 21.396 14.1769 20.892 14.6693C20.388 15.1616 19.7862 15.5425 19.1255 15.7872C18.4648 16.032 17.7601 16.1351 17.057 16.0899H13.7969V22.2743H11.9593V6.04469ZM17.2072 14.4997C17.6642 14.5344 18.1234 14.4696 18.553 14.3098C18.9826 14.15 19.3725 13.8989 19.6958 13.574C20.0191 13.249 20.2681 12.8578 20.4257 12.4274C20.5833 11.9969 20.6457 11.5374 20.6086 11.0806C20.6086 8.757 19.1862 7.62613 17.0746 7.62613H13.7969V14.4997H17.2072Z" fill="#575756"/>
<path d="M13.5407 14.4467H9.45903V16.0723H13.5407V14.4467Z" fill="#575756"/>
<path d="M16.2089 17.2385H9.45903V18.6697H16.2089V17.2385Z" fill="#575756"/>
</svg>
