<svg width="35" height="26" viewBox="0 0 35 26" fill="none" xmlns="http://www.w3.org/2000/svg">
<path fill-rule="evenodd" clip-rule="evenodd" d="M12.4046 0C6.02857 0 0.860229 5.16834 0.860229 11.5444C0.860229 17.9193 6.02857 23.0876 12.4046 23.0876C14.9997 23.0914 17.5196 22.2168 19.5545 20.6063L24.5523 25.6042C24.806 25.8577 25.1501 26.0001 25.5088 26C25.8675 25.9999 26.2114 25.8573 26.465 25.6036C26.7185 25.3499 26.8609 25.0058 26.8608 24.6471C26.8607 24.2884 26.7181 23.9444 26.4644 23.6909L21.4666 18.6954C23.0772 16.6602 23.9518 14.1398 23.9478 11.5444C23.9478 5.16834 18.7795 0 12.4046 0V0ZM3.56494 11.5444C3.55145 10.375 3.77012 9.21464 4.20827 8.13041C4.64643 7.04617 5.29536 6.05965 6.11749 5.22799C6.93961 4.39632 7.91859 3.73605 8.9977 3.28542C10.0768 2.83479 11.2346 2.60275 12.404 2.60275C13.5735 2.60275 14.7313 2.83479 15.8104 3.28542C16.8895 3.73605 17.8685 4.39632 18.6906 5.22799C19.5127 6.05965 20.1616 7.04617 20.5998 8.13041C21.038 9.21464 21.2566 10.375 21.2431 11.5444C21.2163 13.871 20.2732 16.0932 18.6185 17.729C16.9637 19.3647 14.7308 20.2821 12.404 20.2821C10.0773 20.2821 7.84432 19.3647 6.18958 17.729C4.53485 16.0932 3.59177 13.871 3.56494 11.5444V11.5444ZM27.0677 5.71986C27.0677 4.97313 27.6733 4.36751 28.42 4.36751H32.7875C33.1462 4.36751 33.4902 4.50999 33.7438 4.76361C33.9974 5.01722 34.1399 5.3612 34.1399 5.71986C34.1399 6.07853 33.9974 6.42251 33.7438 6.67612C33.4902 6.92974 33.1462 7.07222 32.7875 7.07222H28.42C28.0613 7.07222 27.7174 6.92974 27.4638 6.67612C27.2101 6.42251 27.0677 6.07853 27.0677 5.71986V5.71986ZM28.5235 11.5444C28.5235 10.7977 29.1291 10.192 29.8759 10.192H32.7875C33.1462 10.192 33.4902 10.3345 33.7438 10.5881C33.9974 10.8417 34.1399 11.1857 34.1399 11.5444C34.1399 11.9031 33.9974 12.247 33.7438 12.5006C33.4902 12.7543 33.1462 12.8967 32.7875 12.8967H29.8759C29.5172 12.8967 29.1732 12.7543 28.9196 12.5006C28.666 12.247 28.5235 11.9031 28.5235 11.5444V11.5444ZM27.0677 17.3677C27.0677 16.621 27.6733 16.0154 28.42 16.0154H32.7875C33.1462 16.0154 33.4902 16.1579 33.7438 16.4115C33.9974 16.6651 34.1399 17.0091 34.1399 17.3677C34.1399 17.7264 33.9974 18.0704 33.7438 18.324C33.4902 18.5776 33.1462 18.7201 32.7875 18.7201H28.42C28.0613 18.7201 27.7174 18.5776 27.4638 18.324C27.2101 18.0704 27.0677 17.7264 27.0677 17.3677V17.3677Z" fill="#575756"/>
</svg>
