<svg width="21" height="20" viewBox="0 0 21 20" fill="none" xmlns="http://www.w3.org/2000/svg">
<path fill-rule="evenodd" clip-rule="evenodd" d="M20.8049 10C20.8049 15.5228 16.3278 20 10.8049 20C5.28208 20 0.804932 15.5228 0.804932 10C0.804932 4.47715 5.28208 0 10.8049 0C16.3278 0 20.8049 4.47715 20.8049 10ZM11.1633 7.38244C10.1906 7.787 8.24671 8.62433 5.33151 9.89444C4.85813 10.0827 4.61015 10.2668 4.58757 10.4469C4.54942 10.7512 4.93053 10.8711 5.44949 11.0343C5.52008 11.0565 5.59323 11.0795 5.66821 11.1038C6.1788 11.2698 6.86562 11.464 7.22267 11.4717C7.54655 11.4787 7.90804 11.3452 8.30713 11.0711C11.0309 9.2325 12.4369 8.30317 12.5252 8.28314C12.5875 8.26901 12.6738 8.25123 12.7322 8.30321C12.7907 8.35518 12.785 8.4536 12.7788 8.48C12.741 8.64095 11.245 10.0317 10.4709 10.7515C10.2295 10.9759 10.0583 11.135 10.0233 11.1714C9.94493 11.2528 9.86504 11.3298 9.78825 11.4038C9.3139 11.8611 8.95819 12.204 9.80794 12.764C10.2163 13.0331 10.5431 13.2556 10.8691 13.4776C11.2251 13.7201 11.5802 13.9619 12.0396 14.2631C12.1567 14.3398 12.2685 14.4195 12.3773 14.4971C12.7917 14.7925 13.1639 15.0578 13.6238 15.0155C13.891 14.9909 14.167 14.7397 14.3072 13.9903C14.6384 12.2193 15.2896 8.38205 15.4401 6.80081C15.4533 6.66228 15.4367 6.48498 15.4234 6.40715C15.4101 6.32932 15.3822 6.21842 15.2811 6.13633C15.1613 6.03911 14.9763 6.01861 14.8936 6.02007C14.5175 6.0267 13.9404 6.22735 11.1633 7.38244Z" fill="#575756"/>
</svg>
